<svg width="127" height="31" viewBox="0 0 127 31" fill="none" xmlns="http://www.w3.org/2000/svg">
<path d="M35.3906 18.6846H31.4268L31.4053 17.0195H35.0039C35.5983 17.0195 36.1175 16.9193 36.5615 16.7188C37.0055 16.5182 37.3493 16.2318 37.5928 15.8594C37.8434 15.4798 37.9688 15.0286 37.9688 14.5059C37.9688 13.9329 37.8577 13.4674 37.6357 13.1094C37.4209 12.7441 37.0879 12.4792 36.6367 12.3145C36.1927 12.1426 35.627 12.0566 34.9395 12.0566H31.8887V26H29.8154V10.3594H34.9395C35.7415 10.3594 36.4577 10.4417 37.0879 10.6064C37.7181 10.764 38.2516 11.0146 38.6885 11.3584C39.1325 11.695 39.4691 12.1247 39.6982 12.6475C39.9274 13.1702 40.042 13.7969 40.042 14.5273C40.042 15.1719 39.8773 15.7555 39.5479 16.2783C39.2184 16.7939 38.7601 17.2165 38.1729 17.5459C37.5928 17.8753 36.9124 18.0866 36.1318 18.1797L35.3906 18.6846ZM35.2939 26H30.6104L31.7812 24.3135H35.2939C35.9528 24.3135 36.5114 24.1989 36.9697 23.9697C37.4352 23.7406 37.7897 23.4183 38.0332 23.0029C38.2767 22.5804 38.3984 22.0827 38.3984 21.5098C38.3984 20.9297 38.2946 20.4284 38.0869 20.0059C37.8792 19.5833 37.5534 19.2575 37.1094 19.0283C36.6654 18.7992 36.0924 18.6846 35.3906 18.6846H32.4365L32.458 17.0195H36.4971L36.9375 17.6211C37.6895 17.6855 38.3268 17.9004 38.8496 18.2656C39.3724 18.6237 39.7699 19.082 40.042 19.6406C40.3213 20.1992 40.4609 20.8151 40.4609 21.4883C40.4609 22.4622 40.2461 23.2858 39.8164 23.959C39.3939 24.625 38.7959 25.1335 38.0225 25.4844C37.249 25.8281 36.3395 26 35.2939 26ZM50.0752 24.0127V18.0293C50.0752 17.571 49.9821 17.1735 49.7959 16.8369C49.6169 16.4932 49.3447 16.2282 48.9795 16.042C48.6143 15.8558 48.1631 15.7627 47.626 15.7627C47.1247 15.7627 46.6842 15.8486 46.3047 16.0205C45.9323 16.1924 45.6387 16.418 45.4238 16.6973C45.2161 16.9766 45.1123 17.2773 45.1123 17.5996H43.125C43.125 17.1842 43.2324 16.7725 43.4473 16.3643C43.6621 15.9561 43.9701 15.5872 44.3711 15.2578C44.7793 14.9212 45.2663 14.6562 45.832 14.4629C46.4049 14.2624 47.0423 14.1621 47.7441 14.1621C48.5892 14.1621 49.334 14.3053 49.9785 14.5918C50.6302 14.8783 51.1387 15.3115 51.5039 15.8916C51.8763 16.4645 52.0625 17.1842 52.0625 18.0508V23.4648C52.0625 23.8516 52.0947 24.2633 52.1592 24.7002C52.2308 25.137 52.3346 25.513 52.4707 25.8281V26H50.3975C50.2972 25.7708 50.2184 25.4665 50.1611 25.0869C50.1038 24.7002 50.0752 24.3421 50.0752 24.0127ZM50.4189 18.9531L50.4404 20.3496H48.4316C47.8659 20.3496 47.361 20.3962 46.917 20.4893C46.473 20.5752 46.1006 20.7077 45.7998 20.8867C45.499 21.0658 45.2699 21.2913 45.1123 21.5635C44.9548 21.8285 44.876 22.14 44.876 22.498C44.876 22.8633 44.9583 23.1963 45.123 23.4971C45.2878 23.7979 45.5348 24.0378 45.8643 24.2168C46.2008 24.3887 46.6126 24.4746 47.0996 24.4746C47.7083 24.4746 48.2454 24.3457 48.7109 24.0879C49.1764 23.8301 49.5452 23.515 49.8174 23.1426C50.0967 22.7702 50.2471 22.4085 50.2686 22.0576L51.1172 23.0137C51.0671 23.3145 50.931 23.6475 50.709 24.0127C50.487 24.3779 50.1898 24.7288 49.8174 25.0654C49.4521 25.3949 49.0153 25.6706 48.5068 25.8926C48.0055 26.1074 47.4398 26.2148 46.8096 26.2148C46.0218 26.2148 45.3307 26.0609 44.7363 25.7529C44.1491 25.445 43.6908 25.0332 43.3613 24.5176C43.0391 23.9948 42.8779 23.4111 42.8779 22.7666C42.8779 22.1436 42.9997 21.5957 43.2432 21.123C43.4867 20.6432 43.8376 20.2458 44.2959 19.9307C44.7542 19.6084 45.3057 19.3649 45.9502 19.2002C46.5947 19.0355 47.3145 18.9531 48.1094 18.9531H50.4189ZM62.5146 23.7441V9.5H64.5127V26H62.6865L62.5146 23.7441ZM54.6943 20.3174V20.0918C54.6943 19.2038 54.8018 18.3981 55.0166 17.6748C55.2386 16.9443 55.5501 16.3177 55.9512 15.7949C56.3594 15.2721 56.8428 14.8711 57.4014 14.5918C57.9671 14.3053 58.5973 14.1621 59.292 14.1621C60.0225 14.1621 60.6598 14.291 61.2041 14.5488C61.7555 14.7995 62.221 15.1683 62.6006 15.6553C62.9873 16.1351 63.2917 16.7152 63.5137 17.3955C63.7357 18.0758 63.8896 18.8457 63.9756 19.7051V20.6934C63.8968 21.5456 63.7428 22.3118 63.5137 22.9922C63.2917 23.6725 62.9873 24.2526 62.6006 24.7324C62.221 25.2122 61.7555 25.5811 61.2041 25.8389C60.6527 26.0895 60.0081 26.2148 59.2705 26.2148C58.5902 26.2148 57.9671 26.068 57.4014 25.7744C56.8428 25.4808 56.3594 25.069 55.9512 24.5391C55.5501 24.0091 55.2386 23.3861 55.0166 22.6699C54.8018 21.9466 54.6943 21.1624 54.6943 20.3174ZM56.6924 20.0918V20.3174C56.6924 20.8975 56.7497 21.4417 56.8643 21.9502C56.986 22.4587 57.1722 22.9062 57.4229 23.293C57.6735 23.6797 57.9922 23.984 58.3789 24.2061C58.7656 24.4209 59.2275 24.5283 59.7646 24.5283C60.4235 24.5283 60.9642 24.3887 61.3867 24.1094C61.8164 23.8301 62.1602 23.4613 62.418 23.0029C62.6758 22.5446 62.8763 22.0469 63.0195 21.5098V18.9209C62.9336 18.527 62.8083 18.1475 62.6436 17.7822C62.486 17.4098 62.2783 17.0804 62.0205 16.7939C61.7699 16.5003 61.4583 16.2676 61.0859 16.0957C60.7207 15.9238 60.2874 15.8379 59.7861 15.8379C59.2419 15.8379 58.7728 15.9525 58.3789 16.1816C57.9922 16.4036 57.6735 16.7116 57.4229 17.1055C57.1722 17.4922 56.986 17.9434 56.8643 18.459C56.7497 18.9674 56.6924 19.5117 56.6924 20.0918ZM85.3955 10.3594V26H83.3115L75.4375 13.9365V26H73.3643V10.3594H75.4375L83.3438 22.4551V10.3594H85.3955ZM93.5918 26.2148C92.7826 26.2148 92.0485 26.0788 91.3896 25.8066C90.738 25.5273 90.1758 25.137 89.7031 24.6357C89.2376 24.1344 88.8796 23.54 88.6289 22.8525C88.3783 22.165 88.2529 21.4131 88.2529 20.5967V20.1455C88.2529 19.2002 88.3926 18.3587 88.6719 17.6211C88.9512 16.8763 89.3307 16.2461 89.8105 15.7305C90.2904 15.2148 90.8346 14.8245 91.4434 14.5596C92.0521 14.2946 92.6823 14.1621 93.334 14.1621C94.1647 14.1621 94.8809 14.3053 95.4824 14.5918C96.0911 14.8783 96.5889 15.2793 96.9756 15.7949C97.3623 16.3034 97.6488 16.9049 97.835 17.5996C98.0212 18.2871 98.1143 19.0391 98.1143 19.8555V20.7471H89.4346V19.125H96.127V18.9746C96.0983 18.459 95.9909 17.9577 95.8047 17.4707C95.6257 16.9837 95.3392 16.5827 94.9453 16.2676C94.5514 15.9525 94.0143 15.7949 93.334 15.7949C92.8828 15.7949 92.4674 15.8916 92.0879 16.085C91.7083 16.2712 91.3825 16.5505 91.1104 16.9229C90.8382 17.2952 90.627 17.75 90.4766 18.2871C90.3262 18.8242 90.251 19.4437 90.251 20.1455V20.5967C90.251 21.1481 90.3262 21.6673 90.4766 22.1543C90.6341 22.6341 90.8597 23.0566 91.1533 23.4219C91.4541 23.7871 91.8158 24.0736 92.2383 24.2812C92.668 24.4889 93.1549 24.5928 93.6992 24.5928C94.401 24.5928 94.9954 24.4495 95.4824 24.1631C95.9694 23.8766 96.3955 23.4935 96.7607 23.0137L97.9639 23.9697C97.7132 24.3493 97.3945 24.7109 97.0078 25.0547C96.6211 25.3984 96.1449 25.6777 95.5791 25.8926C95.0205 26.1074 94.3581 26.2148 93.5918 26.2148ZM103.378 23.9375L106.364 14.377H107.675L107.417 16.2783L104.377 26H103.099L103.378 23.9375ZM101.369 14.377L103.915 24.0449L104.098 26H102.755L99.3818 14.377H101.369ZM110.532 23.9697L112.96 14.377H114.937L111.563 26H110.231L110.532 23.9697ZM107.965 14.377L110.887 23.7764L111.22 26H109.952L106.826 16.2568L106.568 14.377H107.965ZM123.745 22.917C123.745 22.6305 123.681 22.3656 123.552 22.1221C123.43 21.8714 123.176 21.6458 122.789 21.4453C122.41 21.2376 121.837 21.0586 121.07 20.9082C120.426 20.7721 119.842 20.611 119.319 20.4248C118.804 20.2386 118.363 20.013 117.998 19.748C117.64 19.4831 117.364 19.1715 117.171 18.8135C116.978 18.4554 116.881 18.0365 116.881 17.5566C116.881 17.0983 116.981 16.665 117.182 16.2568C117.389 15.8486 117.679 15.487 118.052 15.1719C118.431 14.8568 118.886 14.6097 119.416 14.4307C119.946 14.2516 120.537 14.1621 121.188 14.1621C122.119 14.1621 122.914 14.3268 123.573 14.6562C124.232 14.9857 124.737 15.4261 125.088 15.9775C125.439 16.5218 125.614 17.127 125.614 17.793H123.627C123.627 17.4707 123.53 17.1592 123.337 16.8584C123.151 16.5505 122.875 16.2962 122.51 16.0957C122.152 15.8952 121.711 15.7949 121.188 15.7949C120.637 15.7949 120.189 15.8809 119.846 16.0527C119.509 16.2174 119.262 16.4287 119.104 16.6865C118.954 16.9443 118.879 17.2165 118.879 17.5029C118.879 17.7178 118.915 17.9111 118.986 18.083C119.065 18.2477 119.201 18.4017 119.395 18.5449C119.588 18.681 119.86 18.8099 120.211 18.9316C120.562 19.0534 121.009 19.1751 121.554 19.2969C122.506 19.5117 123.29 19.7695 123.906 20.0703C124.522 20.3711 124.98 20.7399 125.281 21.1768C125.582 21.6136 125.732 22.1436 125.732 22.7666C125.732 23.2751 125.625 23.7406 125.41 24.1631C125.202 24.5856 124.898 24.9508 124.497 25.2588C124.103 25.5596 123.631 25.7959 123.079 25.9678C122.535 26.1325 121.923 26.2148 121.242 26.2148C120.218 26.2148 119.352 26.0322 118.643 25.667C117.934 25.3018 117.396 24.8291 117.031 24.249C116.666 23.6689 116.483 23.0566 116.483 22.4121H118.481C118.51 22.9564 118.668 23.3896 118.954 23.7119C119.241 24.027 119.591 24.2526 120.007 24.3887C120.422 24.5176 120.834 24.582 121.242 24.582C121.786 24.582 122.241 24.5104 122.606 24.3672C122.979 24.224 123.262 24.027 123.455 23.7764C123.648 23.5257 123.745 23.2393 123.745 22.917Z" fill="#0E8388"/>
<g clip-path="url(#clip0_4_70)">
<path d="M3.98163 0.519989C4.90619 0.519989 5.77563 0.879829 6.42927 1.53399L23.7676 18.8723L23.8654 18.9696L25.701 25.701L18.9696 23.8654L1.53399 6.42927C0.87983 5.77511 0.51999 4.90619 0.51999 3.98163C0.51999 2.07271 2.07271 0.519989 3.98163 0.519989ZM22.6647 19.24L9.87999 6.45527L6.45527 9.87999L19.24 22.6647L22.6647 19.24ZM9.14471 5.71999L7.79999 4.37527L4.37527 7.79999L5.71999 9.14471L9.14471 5.71999ZM23.1337 20.2415L20.241 23.1343L24.2185 24.219L23.1337 20.2415ZM2.26927 5.69399L3.63999 7.06471L7.06471 3.63999L5.69399 2.26927C5.23639 1.81167 4.62851 1.55999 3.98163 1.55999C2.64627 1.55999 1.55999 2.64627 1.55999 3.98163C1.55999 4.62851 1.81167 5.23639 2.26927 5.69399Z" fill="#0E8388"/>
</g>
<defs>
<clipPath id="clip0_4_70">
<rect width="26" height="26" fill="white" transform="matrix(-1 0 0 1 26 0)"/>
</clipPath>
</defs>
</svg>
